<?xml version="1.0" encoding="utf-8"?>
<!-- Generator: Adobe Illustrator 25.4.0, SVG Export Plug-In . SVG Version: 6.00 Build 0)  -->
<svg version="1.1" id="Layer_1" xmlns="http://www.w3.org/2000/svg" xmlns:xlink="http://www.w3.org/1999/xlink" x="0px" y="0px"
	 viewBox="0 0 310 82" style="enable-background:new 0 0 310 82;" xml:space="preserve">
<style type="text/css">
	.st0{display:none;fill:#F15A24;}
	.st1{display:none;fill:#C7B299;}
	.st2{fill:#DEDEDE;}
	.st3{fill:#5F5F5F;}
	.st4{fill:#EFE8FF;}
	.st5{fill:#5F449B;}
	.st6{fill:#E9E2FF;}
</style>
<rect x="0.8" y="0.3" class="st0" width="38" height="28"/>
<rect x="39.3" y="0.3" class="st0" width="38" height="28"/>
<rect x="77.9" y="0.3" class="st0" width="38" height="28"/>
<rect x="116.5" y="0.3" class="st0" width="38" height="28"/>
<rect x="155.1" y="0.3" class="st0" width="38" height="28"/>
<rect x="193.6" y="0.3" class="st0" width="38" height="28"/>
<rect x="232.2" y="0.3" class="st0" width="38" height="28"/>
<rect x="270.8" y="0.3" class="st0" width="38" height="28"/>
<rect x="0.8" y="29.3" class="st0" width="38" height="28"/>
<rect x="39.3" y="29.3" class="st0" width="38" height="28"/>
<rect x="77.9" y="29.3" class="st0" width="38" height="28"/>
<rect x="116.5" y="29.3" class="st0" width="38" height="28"/>
<rect x="155.1" y="29.3" class="st0" width="38" height="28"/>
<rect x="193.6" y="29.3" class="st0" width="38" height="28"/>
<rect x="232.2" y="29.3" class="st0" width="38" height="28"/>
<rect x="270.8" y="29.3" class="st0" width="38" height="28"/>
<rect x="1" y="58.6" class="st1" width="24" height="22"/>
<rect x="25.3" y="58.6" class="st1" width="24" height="22"/>
<rect x="49.5" y="58.6" class="st1" width="24" height="22"/>
<rect x="73.8" y="58.6" class="st1" width="24" height="22"/>
<rect x="98" y="58.6" class="st1" width="24" height="22"/>
<path id="Path_10071" class="st2" d="M20.3,26.9V12l9.1-4.5v19.4H20.3z"/>
<path id="Combined-Shape" class="st3" d="M10.4,1.4c0.1-0.1,0.3-0.1,0.5,0l0,0l8.7,5.2c0.1-0.1,0.9,0.5,0.9,0.5l0,0l0.3,0.2
	C20.9,7.4,21,7.5,21,7.7l0,0v3.8l5.5-3.1c0,0,0.8-0.6,1-0.6l0,0l0,0l1.6-0.9c0.2-0.1,0.5,0,0.6,0.2c0,0.1,0.1,0.2,0.1,0.2l0,0v1.2v1
	v13.3c1.9,0.4,3.3,2.1,3.3,4.1c0,0.3-0.2,0.5-0.5,0.5l0,0H6.9c-0.3,0-0.5-0.2-0.5-0.5l0,0c0-2.2,1.6-4,3.8-4.2l0,0V1.8
	C10.1,1.6,10.2,1.5,10.4,1.4z M10.1,23.6c-1.4,0.2-2.6,1.3-2.8,2.8h2.8V23.6z M11.1,2.6v23.8h9V8L11.1,2.6z M28.9,8.1l-8,4.5v13.8h8
	V8.1z M29.9,23.7v2.7h2.3C32,25.1,31.1,24.1,29.9,23.7L29.9,23.7z M27.1,21.2c0.3,0,0.5,0.2,0.5,0.5l0,0l0,0v1.9
	c0,0.3-0.2,0.5-0.5,0.5l0,0h-4.2c-0.3,0-0.5-0.2-0.5-0.5l0,0l0,0v-1.9c0-0.3,0.2-0.5,0.5-0.5l0,0H27.1L27.1,21.2z M26.6,22.2h-3.3v1
	h3.3V22.2z M18.6,19.8c0.3,0,0.5,0.2,0.5,0.5l0,0l0,0v1.9c0,0.3-0.2,0.5-0.5,0.5l0,0h-6.1c-0.3,0-0.5-0.2-0.5-0.5l0,0l0,0v-1.9
	c0-0.3,0.2-0.5,0.5-0.5l0,0H18.6L18.6,19.8z M18.1,20.8H13v0.9h5.2v-0.9H18.1z M27.1,17.5c0.3,0,0.5,0.2,0.5,0.5l0,0l0,0v1.9
	c0,0.3-0.2,0.5-0.5,0.5l0,0h-4.2c-0.3,0-0.5-0.2-0.5-0.5l0,0l0,0V18c0-0.3,0.2-0.5,0.5-0.5l0,0H27.1L27.1,17.5z M26.6,18.4h-3.3v1
	h3.3V18.4z M18.6,16.1c0.3,0,0.5,0.2,0.5,0.5l0,0l0,0v1.9c0,0.3-0.2,0.5-0.5,0.5l0,0h-6.1c-0.3,0-0.5-0.2-0.5-0.5l0,0l0,0v-1.9
	c0-0.3,0.2-0.5,0.5-0.5l0,0H18.6L18.6,16.1z M18.1,17H13v0.9h5.2L18.1,17z M27.1,13.7c0.3,0,0.5,0.2,0.5,0.5l0,0l0,0v1.9
	c0,0.3-0.2,0.5-0.5,0.5l0,0h-4.2c-0.3,0-0.5-0.2-0.5-0.5l0,0l0,0v-1.9c0-0.3,0.2-0.5,0.5-0.5l0,0L27.1,13.7L27.1,13.7z M26.6,14.6
	h-3.3v1h3.3V14.6z M18.6,12.3c0.3,0,0.5,0.2,0.5,0.5l0,0l0,0v1.9c0,0.3-0.2,0.5-0.5,0.5l0,0h-6.1c-0.3,0-0.5-0.2-0.5-0.5l0,0l0,0
	v-1.9c0-0.3,0.2-0.5,0.5-0.5l0,0H18.6L18.6,12.3z M18.1,13.2H13v0.9h5.2L18.1,13.2z M18.6,8.5c0.3,0,0.5,0.2,0.5,0.5l0,0l0,0v1.9
	c0,0.3-0.2,0.5-0.5,0.5l0,0h-6.1c-0.3,0-0.5-0.2-0.5-0.5l0,0l0,0V9c0-0.3,0.2-0.5,0.5-0.5l0,0H18.6L18.6,8.5z M18.1,9.5H13v0.9h5.2
	L18.1,9.5z"/>
<path class="st2" d="M41.7,26.8v-7.4l6.5-4.4v11.7L41.7,26.8L41.7,26.8z M74.6,26.8v-7.4L68.5,15v11.7L74.6,26.8L74.6,26.8z"/>
<path id="Combined-Shape_1_" class="st3" d="M57.9,5.1c0.2-0.2,0.6-0.2,0.8,0l0,0l10.4,7.8c0.2,0.1,0.3,0.3,0.3,0.6l0,0v1.6l5.3,4
	c0.2,0.1,0.3,0.3,0.3,0.6l0,0v7c0,0.4-0.3,0.7-0.7,0.7H42.4c-0.4,0-0.7-0.3-0.7-0.7l0,0l0,0v-7c0-0.2,0.1-0.4,0.3-0.6l0,0l5.3-4
	v-1.6c0-0.2,0.1-0.4,0.3-0.6l0,0L57.9,5.1z M59.1,22.4h-1.5v3.5h1.5V22.4z M58.3,6.5l-9.7,7.3v12.1h7.5v-4.2c0-0.4,0.3-0.7,0.7-0.7
	h2.9c0.4,0,0.7,0.3,0.7,0.7l0,0v4.2H68V13.8L58.3,6.5z M47.3,16.8L43.1,20v6h4.1L47.3,16.8z M69.4,16.8v9.1h4.1v-6L69.4,16.8z
	 M57.9,1.5c0.2-0.2,0.6-0.2,0.8,0l0,0l15.9,12c0.3,0.2,0.4,0.6,0.2,1c-0.2,0.3-0.6,0.4-1,0.2c0,0-0.1,0-0.1-0.1l0,0L58.3,2.9
	L42.8,14.6c-0.3,0.2-0.8,0.1-1-0.2s-0.1-0.7,0.1-0.9l0,0L57.9,1.5z"/>
<rect id="Rectangle_2524" x="89" y="15.4" class="st2" width="19.6" height="9.3"/>
<path class="st3" d="M111.2,9.2l-1.9-1.9c-0.1-0.1-0.2-0.1-0.3-0.1h-2c0,0-16.7,0-16.9,0h-2.9V3.7c0-0.1-0.1-0.2-0.1-0.3l-1.9-1.9
	c-0.2-0.2-0.5-0.2-0.7,0l-1.9,1.9c-0.1,0.1-0.1,0.2-0.1,0.3v9.1h1V3.9l1.4-1.4l1.4,1.4v22.4h-2.9v-14h-1v14.5c0,0.3,0.2,0.5,0.5,0.5
	h3.9c0.3,0,0.5-0.2,0.5-0.5V11.9h3.4v3.4h-0.8c-0.6,0-1.1,0.5-1.1,1.1v7.5c0,0.6,0.5,1.1,1.1,1.1H108c0.6,0,1.1-0.5,1.1-1.1v-4.6h-1
	v4.6c0,0.1-0.1,0.1-0.1,0.1l0,0H89.8c-0.1,0-0.1-0.1-0.1-0.1l0,0v-7.5c0-0.1,0.1-0.1,0.1-0.1l0,0h0.8v1h1v-1H106v1h1v-1h0.8
	c0.1,0,0.1,0.1,0.1,0.1l0,0v3.2h1v-3.2c0-0.6-0.5-1.1-1.1-1.1H107v-3.4h1.9c0.1,0,0.2-0.1,0.3-0.1l1.9-1.9
	C111.4,9.7,111.4,9.4,111.2,9.2z M106.1,15.3H91.6v-3.4H106L106.1,15.3L106.1,15.3z M108.8,11H87.3V8.1h21.5l1.4,1.4L108.8,11z
	 M94.5,19.5v-0.7c0-0.6-0.5-1.1-1.1-1.1h-0.7c-0.6,0-1.1,0.5-1.1,1.1v3.7h1v-1.6l1,1.3v0.3h1V22c0-0.1,0-0.2-0.1-0.3l-0.9-1.2
	C94.1,20.5,94.5,20.1,94.5,19.5z M93.5,19.5c0,0.1-0.1,0.1-0.1,0.1h-0.8v-0.8c0-0.1,0.1-0.1,0.1-0.1h0.7c0.1,0,0.1,0.1,0.1,0.1
	L93.5,19.5z M97.9,18.7v-1H96c-0.3,0-0.5,0.2-0.5,0.5V22c0,0.3,0.2,0.5,0.5,0.5h1.9v-1h-1.4v-1h1v-1h-1v-1L97.9,18.7z M100.3,18
	c-0.1-0.2-0.3-0.3-0.5-0.3h-0.5c-0.3,0-0.5,0.2-0.5,0.5v4.3h1v-3l1,2.6c0.1,0.2,0.3,0.3,0.5,0.3h0.5c0.3,0,0.5-0.2,0.5-0.5v-4.3h-1
	v3L100.3,18z M105.1,22.5v-3.9h1v-1h-2.9v1h1v3.9H105.1z M90.7,9h1v1h-1V9z M106.1,9h1v1h-1V9z M84.4,7.1h1v1h-1V7.1z M84.4,11h1v1
	h-1V11z"/>
<circle id="Ellipse_416_1_" class="st2" cx="135.5" cy="19.1" r="4.5"/>
<path class="st3" d="M128.5,27.3h14c1.8,0,3.3-1.3,3.4-3.1c0.1-0.7-0.1-1.4-0.5-2c-1.4-2.4-2.1-5.1-2-7.8v-1c0-1.9-1.5-3.6-3.4-3.7
	c-0.1-0.4-0.3-0.7-0.6-0.9l2.1-4.6c0.5-1,0-2.2-1-2.6s-2.1,0-2.6,0.9L137.8,3c-0.1,0.1-0.2,0.2-0.3,0.1L137.4,3l-0.3-0.5
	c-0.4-0.9-1.5-1.2-2.3-0.8c-0.4,0.2-0.6,0.5-0.8,0.8L133.7,3c-0.1,0.1-0.2,0.2-0.3,0.1L133.3,3L133,2.6c-0.4-1-1.6-1.5-2.6-1.1
	s-1.5,1.6-1.1,2.6c0,0.1,0,0.1,0.1,0.2l2.1,4.6c-0.3,0.2-0.5,0.5-0.6,0.9c-1.9,0.2-3.4,1.8-3.4,3.7v1c0,2.7-0.7,5.4-2,7.8
	c-0.4,0.6-0.5,1.3-0.5,2C125.2,26,126.7,27.4,128.5,27.3z M132.6,9.4h5.9c0.5,0,0.8,0.4,0.8,0.8c0,0.5-0.4,0.8-0.8,0.8l0,0h-5.9
	c-0.5,0-0.8-0.4-0.8-0.8C131.7,9.7,132.1,9.4,132.6,9.4z M130.2,3.9c-0.2-0.4-0.1-1,0.2-1.3c0.2-0.2,0.5-0.3,0.8-0.3
	c0.4,0,0.9,0.3,1,0.7l0.2,0.4c0.3,0.5,0.9,0.8,1.4,0.5c0.2-0.1,0.4-0.3,0.5-0.5l0.3-0.6c0.2-0.5,0.8-0.6,1.2-0.4
	c0.2,0.1,0.3,0.2,0.4,0.4l0.3,0.6c0.3,0.5,0.9,0.8,1.4,0.5c0.2-0.1,0.4-0.3,0.5-0.5l0.2-0.4c0.3-0.6,1-0.8,1.5-0.6s0.8,1,0.6,1.5
	l0,0l-2.1,4.6c-0.1,0-0.2,0-0.3,0h-1.2l0.7-3.3L137,5l-0.8,3.4h-0.5V5.2h-0.8v3.3h-0.5l-0.8-3.4L133,5.3l0.7,3.3h-1.2
	c-0.1,0-0.2,0-0.3,0L130.2,3.9z M126.2,22.7c1.4-2.5,2.2-5.3,2.2-8.2v-1c0-1.5,1.1-2.7,2.6-2.9c0.2,0.7,0.9,1.2,1.6,1.2h5.9
	c0.8,0,1.4-0.5,1.6-1.2c1.5,0.2,2.6,1.4,2.6,2.9v1c0,2.9,0.7,5.7,2.2,8.2c0.3,0.4,0.4,1,0.3,1.5c-0.1,1.3-1.3,2.3-2.6,2.3h-14
	c-1.3,0-2.5-1-2.6-2.3C125.8,23.7,126,23.2,126.2,22.7z M135.1,21.5v0.4h0.8v-0.4c0.7,0,1.3-0.6,1.3-1.3v-0.4c0-0.7-0.6-1.3-1.3-1.3
	v-1.3c0.2,0,0.4,0.2,0.4,0.4l0,0V18h0.8v-0.4c0-0.7-0.6-1.3-1.3-1.3v-0.4H135v0.4c-0.7,0-1.3,0.6-1.3,1.3V18c0,0.7,0.6,1.3,1.3,1.3
	v1.3c-0.2,0-0.4-0.2-0.4-0.4l0,0v-0.4h-0.8v0.4C133.8,20.9,134.4,21.5,135.1,21.5L135.1,21.5z M134.7,18.1v-0.4
	c0-0.2,0.2-0.4,0.4-0.4l0,0v1.3C134.8,18.6,134.7,18.4,134.7,18.1L134.7,18.1z M135.9,19.4c0.2,0,0.4,0.2,0.4,0.4l0,0v0.4
	c0,0.2-0.2,0.4-0.4,0.4l0,0V19.4z M135.5,23.6c2.5,0,4.6-2.1,4.6-4.6s-2.1-4.6-4.6-4.6s-4.6,2.1-4.6,4.6S132.9,23.6,135.5,23.6
	L135.5,23.6z M135.5,15.2c2.1,0,3.8,1.7,3.8,3.8s-1.7,3.8-3.8,3.8s-3.8-1.7-3.8-3.8l0,0C131.7,16.9,133.4,15.2,135.5,15.2z"/>
<path id="Path_9257" class="st2" d="M161,26.1v-6.2h20.6v6.9H161V26.1z"/>
<path class="st3" d="M164.4,15.2h1.2v1.2h-1.2V15.2z M168,15.2h1.2v1.2H168V15.2z M172.8,15.2h1.2v1.2h-1.2V15.2z M176.5,15.2h1.2
	v1.2h-1.2V15.2z M191.6,19.5h-0.4l0.4-1.7c0.1-0.3-0.1-0.7-0.4-0.7h-0.1h-0.7l0.6-0.9c0.2-0.3,0.1-0.7-0.2-0.8
	c-0.3-0.2-0.6-0.1-0.8,0.2l-0.1,0.2c-0.1-0.3-0.4-0.5-0.7-0.4c-0.2,0.1-0.4,0.2-0.4,0.4l-0.1-0.2c-0.2-0.3-0.6-0.3-0.8-0.1
	c-0.3,0.2-0.3,0.5-0.2,0.8l0.6,0.9h-0.7c-0.3,0-0.6,0.3-0.6,0.6v0.1l0.4,1.7h-1v-1.2c0-1.4-1-2.7-2.4-3V5.6c0-2.3-1.9-4.2-4.2-4.2
	h-1.2c-2.1,0-3.9,1.6-4.2,3.7c-1.8,0.3-3.1,1.8-3.1,3.6v0.6c0,0.3,0.3,0.6,0.6,0.6h6c0.3,0,0.6-0.3,0.6-0.6V8.6c0-1.7-1.3-3.2-3-3.6
	c0.3-1.4,1.5-2.5,3-2.5h1.2c1.7,0,3,1.4,3,3v9.7c-0.4,0.1-0.9,0.3-1.2,0.5v-0.2c0-1.9-1.6-3.5-3.5-3.5h-13.6c-1.9,0-3.5,1.6-3.5,3.5
	v0.2c-1.3-1-3.2-0.7-4.2,0.6c-0.4,0.5-0.6,1.2-0.6,1.8v8.5c0,0.3,0.3,0.6,0.6,0.6h35.1c0.3,0,0.6-0.2,0.6-0.6c0-0.3-0.2-0.6-0.6-0.6
	l0,0H190v-3h1.8c0.3,0,0.6-0.3,0.6-0.6V20C192.2,19.7,191.9,19.5,191.6,19.5z M177.1,8.6h-4.8c0-1.3,1.1-2.4,2.5-2.4
	C176,6.2,177,7.3,177.1,8.6z M160.7,20.7v5.4h-3.6v-7.9c0-1,0.8-1.8,1.8-1.8s1.8,0.8,1.8,1.8V20.7z M162,20.7c0-0.3,0.3-0.6,0.6-0.6
	h7.3c0.3,0,0.6,0.3,0.6,0.6v1.8H162V20.7z M180.1,26.1H162v-2.4h18.1V26.1z M180.1,22.5h-8.5v-1.8c0-0.3,0.3-0.6,0.6-0.6h7.3
	c0.3,0,0.6,0.3,0.6,0.6L180.1,22.5z M180.1,18.3V19c-0.2-0.1-0.4-0.1-0.6-0.1h-7.3c-0.4,0-0.9,0.2-1.2,0.5c-0.3-0.3-0.8-0.5-1.2-0.5
	h-7.3c-0.2,0-0.4,0-0.6,0.1v-3.3c0-1.3,1-2.3,2.3-2.3h13.6c1.3,0,2.3,1,2.3,2.3V18.3z M184.9,20.1v6h-3.6v-7.9c0-1,0.8-1.8,1.8-1.8
	s1.8,0.8,1.8,1.8V20.1z M189.2,18.3h1l-0.3,1.2h-1.5l-0.3-1.2H189.2z M188.6,26.1h-2.4v-3h2.4V26.1z M191,21.9h-4.8v-1.2h4.8V21.9z"
	/>
<path id="Path_8804" class="st2" d="M202.6,26.8V21c0,0,0.5-2.3,3.8-3.6c3.3-1.3,3.6-3.8,3.6-3.8s2.1,2,5.2,0c0,0,0.2,3.1,5.1,4.5
	c0.1,0.1,2.9,1.2,2.5,8.8C222.9,26.8,202.6,26.8,202.6,26.8z"/>
<path id="Path_8803" class="st3" d="M220.2,17.4c-1.2-0.3-2.3-0.8-3.4-1.5l-1-1v-1.3c1.7-1.8,2.6-4.2,2.7-6.6c0-3.5-2.3-5.7-5.8-5.7
	s-5.8,2.2-5.8,5.7c0,2.5,1,4.8,2.7,6.6v1.3l-1,1c-1.1,0.6-2.2,1.1-3.4,1.5c-1.9,0.8-3.1,2.6-3,4.7v4.7c0,0.3,0.2,0.5,0.5,0.5h20.2
	c0.3,0,0.5-0.2,0.5-0.5l0,0v-4.7C223.3,20,222.1,18.1,220.2,17.4z M210.1,15.8l1.7,1l-1.2,1.2l-1-1.7L210.1,15.8z M212.6,19.9h0.1
	l0.8,6.4h-1.8L212.6,19.9z M212.8,18.8h-0.3l-0.3-0.9l0.5-0.5l0.5,0.5L212.8,18.8z M213.5,16.8l1.7-1l0.5,0.5l-1,1.7L213.5,16.8z
	 M212.6,2.4c3,0,4.8,1.7,4.8,4.6v0.1c-1.3-0.2-2.3-1.2-2.6-2.4c0-0.3-0.3-0.5-0.6-0.4c-0.2,0-0.3,0.2-0.4,0.3
	c-0.5,1.3-3.8,2.4-5.9,3c0-0.2,0-0.4,0-0.5C207.9,4.1,209.6,2.4,212.6,2.4z M208,8.6c1.1-0.3,4.6-1.2,6.1-2.7
	c0.6,1.2,1.8,2.1,3.2,2.3c-0.4,2.9-2.4,5.8-4.7,5.8C210.4,14.1,208.6,11.4,208,8.6z M212.6,15.1c0.8,0,1.5-0.2,2.1-0.6v0.3l-2.1,1.3
	l-2.1-1.3v-0.3C211.1,14.9,211.9,15.1,212.6,15.1z M203.1,22.1c-0.1-1.6,0.8-3.1,2.3-3.7c1.2-0.3,2.3-0.8,3.4-1.4l1.3,2.2
	c0.2,0.3,0.5,0.3,0.7,0.2c0,0,0.1,0,0.1-0.1l0.4-0.4l0.3,0.6l-0.9,6.8h-3.9v-3.2h-1.1v3.2H203L203.1,22.1L203.1,22.1z M222.2,26.3
	h-2.7v-3.2h-1.1v3.2h-3.9l-0.9-6.8l0.3-0.6l0.4,0.4c0.2,0.2,0.5,0.2,0.8,0l0.1-0.1l1.3-2.2c1.1,0.6,2.2,1.1,3.4,1.4
	c1.5,0.6,2.4,2.1,2.3,3.7L222.2,26.3L222.2,26.3z"/>
<path id="Path_10075" class="st2" d="M250.2,20.6v-1.3l-1.4-0.7l-1.2,0.7l-1.1-1.9l1.3-0.8l-0.2-1.4l-1.1-0.8l1.1-1.8l1.2,0.7
	l1.4-0.7v-1.4h2v1.4l1.3,0.7l1.3-0.7l0.9,1.8l-1.2,0.8v1.6l1.2,0.6l-1.2,1.9l-1-0.7l-1.3,0.7v1.3L250.2,20.6z"/>
<path class="st3" d="M264,12.6c0.3,0.1,0.6,0.1,0.7-0.2c0-0.1,0.1-0.2,0.1-0.3V9.2c0-0.2-0.1-0.4-0.3-0.5l-13.1-7.4
	c-0.2-0.1-0.4-0.1-0.5,0l-13.1,7.4c-0.2,0.1-0.3,0.3-0.3,0.5v2.9c0,0.3,0.2,0.5,0.5,0.5c0.1,0,0.2,0,0.3-0.1l1.7-1v12.2h-2
	c-0.3,0-0.5,0.2-0.5,0.5l0,0v2.5c0,0.3,0.2,0.5,0.5,0.5l0,0h16.3c0.3,0,0.5-0.2,0.5-0.5s-0.2-0.5-0.5-0.5h-15.8v-1.4h25.1v1.4h-10.1
	c-0.3,0-0.5,0.2-0.5,0.5s0.2,0.5,0.5,0.5l0,0h10.7c0.3,0,0.5-0.2,0.5-0.5v-2.5c0-0.3-0.2-0.5-0.5-0.5l0,0h-2V11.6L264,12.6z
	 M238.7,9.6l12.5-7.1l12.5,7.1v1.6l-12.3-6.9c-0.2-0.1-0.4-0.1-0.5,0l-12.3,6.9L238.7,9.6L238.7,9.6z M261.2,23.8h-20.1V11l10-5.7
	l10,5.7v12.8H261.2z M249.6,11.2v1c-0.3,0.1-0.6,0.3-0.8,0.5l-0.9-0.5c-0.3-0.1-0.6-0.1-0.7,0.2l0,0l-1.1,1.8
	c-0.1,0.3-0.1,0.6,0.2,0.7l0.9,0.5c0,0.3,0,0.6,0,0.9l-0.9,0.5c-0.3,0.1-0.3,0.5-0.2,0.7l0,0l1.1,1.8c0.1,0.3,0.5,0.3,0.7,0.2l0,0
	l0.9-0.5c0.2,0.2,0.5,0.3,0.8,0.5v1c0,0.3,0.2,0.5,0.5,0.5h2.1c0.3,0,0.5-0.2,0.5-0.5v-1c0.3-0.1,0.6-0.3,0.8-0.5l0.9,0.5
	c0.3,0.1,0.6,0.1,0.7-0.2l0,0l1.1-1.8c0.1-0.3,0.1-0.6-0.2-0.7l0,0l-0.9-0.5c0-0.3,0-0.6,0-0.9L256,15c0.3-0.1,0.3-0.5,0.2-0.7l0,0
	l-1.1-1.8c-0.1-0.3-0.5-0.3-0.7-0.2l0,0l-0.9,0.5c-0.2-0.2-0.5-0.3-0.8-0.5v-1c0-0.3-0.2-0.5-0.5-0.5h-2.1
	C249.8,10.7,249.6,10.9,249.6,11.2z M250.7,12.6v-0.8h1.1v0.8c0,0.2,0.1,0.4,0.4,0.5c0.4,0.1,0.8,0.3,1.1,0.6
	c0.2,0.2,0.4,0.2,0.6,0.1l0.7-0.4l0.5,0.9l-0.7,0.4c-0.2,0.1-0.3,0.3-0.3,0.6c0.1,0.4,0.1,0.8,0,1.3c0,0.2,0.1,0.5,0.3,0.6l0.7,0.4
	l-0.5,0.9l-0.7-0.4c-0.2-0.1-0.5-0.1-0.6,0.1c-0.3,0.3-0.7,0.5-1.1,0.6c-0.2,0.1-0.4,0.3-0.4,0.5v0.8h-1.1v-0.8
	c0-0.2-0.1-0.4-0.4-0.5c-0.4-0.1-0.8-0.3-1.1-0.6c-0.2-0.2-0.4-0.2-0.6-0.1l-0.7,0.4l-0.5-0.9l0.7-0.4c0.2-0.1,0.3-0.3,0.3-0.6
	c-0.1-0.4-0.1-0.8,0-1.3c0-0.2-0.1-0.5-0.3-0.6l-0.7-0.4l0.5-0.9l0.7,0.4c0.2,0.1,0.5,0.1,0.6-0.1c0.3-0.3,0.7-0.5,1.1-0.6
	C250.5,13,250.7,12.8,250.7,12.6L250.7,12.6z M251.2,17.8c1,0,1.9-0.8,1.9-1.9s-0.8-1.9-1.9-1.9s-1.9,0.8-1.9,1.9
	S250.2,17.8,251.2,17.8z M251.2,15.1c0.5,0,0.8,0.4,0.8,0.8c0,0.5-0.4,0.8-0.8,0.8c-0.5,0-0.8-0.4-0.8-0.8l0,0
	C250.4,15.5,250.7,15.1,251.2,15.1L251.2,15.1z"/>
<circle id="Ellipse_416" class="st2" cx="296.6" cy="21.1" r="6.2"/>
<path class="st3" d="M285.6,13.5h-5.5c-1.9,0-3.3-1.5-3.4-3.4V4.7c0-1.9,1.5-3.3,3.4-3.4h5.5c1.9,0,3.3,1.5,3.4,3.4v5.5
	C289,12,287.5,13.5,285.6,13.5z M280.1,3c-1,0-1.7,0.8-1.7,1.7v5.5c0,1,0.8,1.7,1.7,1.7h5.5c1,0,1.7-0.8,1.7-1.7V4.7
	c0-1-0.8-1.7-1.7-1.7C285.6,3,280.1,3,280.1,3z M299.4,13.5h-5.5c-1.8,0-3.3-1.5-3.4-3.4V4.7c0-1.9,1.5-3.3,3.4-3.4h5.5
	c1.9,0,3.3,1.5,3.4,3.4v5.5C302.8,12,301.3,13.5,299.4,13.5z M293.9,3c-1,0-1.7,0.8-1.7,1.7v5.5c0,1,0.8,1.7,1.7,1.7h5.5
	c1,0,1.7-0.8,1.7-1.7V4.7c0-1-0.8-1.7-1.7-1.7L293.9,3z M296.7,27.3c-3.4,0-6.1-2.7-6.1-6.1s2.7-6.1,6.1-6.1s6.1,2.7,6.1,6.1l0,0
	C302.8,24.6,300,27.3,296.7,27.3z M296.7,16.8c-2.5,0-4.5,2-4.5,4.5s2,4.5,4.5,4.5s4.5-2,4.5-4.5C301.1,18.8,299.1,16.8,296.7,16.8z
	 M285.6,27.3h-5.5c-1.9,0-3.3-1.5-3.4-3.4v-5.5c0-1.8,1.5-3.3,3.4-3.4h5.5c1.9,0,3.3,1.5,3.4,3.4V24C289,25.8,287.5,27.3,285.6,27.3
	z M280.1,16.8c-1,0-1.7,0.8-1.7,1.7V24c0,1,0.8,1.7,1.7,1.7h5.5c1,0,1.7-0.8,1.7-1.7v-5.5c0-1-0.8-1.7-1.7-1.7H280.1z"/>
<path id="Path_10071_1_" class="st4" d="M20.3,55.9V41l9.1-4.5v19.4H20.3z"/>
<path id="Combined-Shape_3_" class="st5" d="M10.4,30.4c0.1-0.1,0.3-0.1,0.5,0l0,0l8.7,5.2c0.1-0.1,0.9,0.5,0.9,0.5l0,0l0.3,0.2
	c0.1,0.1,0.2,0.2,0.2,0.4l0,0v3.8l5.5-3.1c0,0,0.8-0.6,1-0.6l0,0l0,0l1.6-0.9c0.2-0.1,0.5,0,0.6,0.2c0,0.1,0.1,0.2,0.1,0.2l0,0v1.2
	v1v13.3c1.9,0.4,3.3,2.1,3.3,4.1c0,0.3-0.2,0.5-0.5,0.5l0,0H6.9c-0.3,0-0.5-0.2-0.5-0.5l0,0c0-2.2,1.6-4,3.8-4.2l0,0V30.8
	C10.1,30.6,10.2,30.5,10.4,30.4z M10.1,52.6c-1.4,0.2-2.6,1.3-2.8,2.8h2.8V52.6z M11.1,31.6v23.8h9V37L11.1,31.6z M28.9,37.1l-8,4.5
	v13.8h8V37.1z M29.9,52.7v2.7h2.3C32,54.1,31.1,53.1,29.9,52.7L29.9,52.7z M27.1,50.2c0.3,0,0.5,0.2,0.5,0.5l0,0l0,0v1.9
	c0,0.3-0.2,0.5-0.5,0.5l0,0h-4.2c-0.3,0-0.5-0.2-0.5-0.5l0,0l0,0v-1.9c0-0.3,0.2-0.5,0.5-0.5l0,0H27.1L27.1,50.2z M26.6,51.2h-3.3v1
	h3.3V51.2z M18.6,48.8c0.3,0,0.5,0.2,0.5,0.5l0,0l0,0v1.9c0,0.3-0.2,0.5-0.5,0.5l0,0h-6.1c-0.3,0-0.5-0.2-0.5-0.5l0,0l0,0v-1.9
	c0-0.3,0.2-0.5,0.5-0.5l0,0H18.6L18.6,48.8z M18.1,49.8H13v0.9h5.2v-0.9H18.1z M27.1,46.5c0.3,0,0.5,0.2,0.5,0.5l0,0l0,0v1.9
	c0,0.3-0.2,0.5-0.5,0.5l0,0h-4.2c-0.3,0-0.5-0.2-0.5-0.5l0,0l0,0V47c0-0.3,0.2-0.5,0.5-0.5l0,0H27.1L27.1,46.5z M26.6,47.4h-3.3v1
	h3.3V47.4z M18.6,45.1c0.3,0,0.5,0.2,0.5,0.5l0,0l0,0v1.9c0,0.3-0.2,0.5-0.5,0.5l0,0h-6.1c-0.3,0-0.5-0.2-0.5-0.5l0,0l0,0v-1.9
	c0-0.3,0.2-0.5,0.5-0.5l0,0H18.6L18.6,45.1z M18.1,46H13v0.9h5.2L18.1,46z M27.1,42.7c0.3,0,0.5,0.2,0.5,0.5l0,0l0,0v1.9
	c0,0.3-0.2,0.5-0.5,0.5l0,0h-4.2c-0.3,0-0.5-0.2-0.5-0.5l0,0l0,0v-1.9c0-0.3,0.2-0.5,0.5-0.5l0,0H27.1L27.1,42.7z M26.6,43.6h-3.3v1
	h3.3V43.6z M18.6,41.3c0.3,0,0.5,0.2,0.5,0.5l0,0l0,0v1.9c0,0.3-0.2,0.5-0.5,0.5l0,0h-6.1c-0.3,0-0.5-0.2-0.5-0.5l0,0l0,0v-1.9
	c0-0.3,0.2-0.5,0.5-0.5l0,0H18.6L18.6,41.3z M18.1,42.2H13v0.9h5.2L18.1,42.2z M18.6,37.5c0.3,0,0.5,0.2,0.5,0.5l0,0l0,0v1.9
	c0,0.3-0.2,0.5-0.5,0.5l0,0h-6.1c-0.3,0-0.5-0.2-0.5-0.5l0,0l0,0V38c0-0.3,0.2-0.5,0.5-0.5l0,0H18.6L18.6,37.5z M18.1,38.5H13v0.9
	h5.2L18.1,38.5z"/>
<path class="st4" d="M41.7,55.8v-7.4l6.5-4.4v11.7h-6.5V55.8z M74.6,55.8v-7.4L68.5,44v11.7L74.6,55.8L74.6,55.8z"/>
<path id="Combined-Shape_2_" class="st5" d="M57.9,34.1c0.2-0.2,0.6-0.2,0.8,0l0,0l10.4,7.8c0.2,0.1,0.3,0.3,0.3,0.6l0,0v1.6l5.3,4
	c0.2,0.1,0.3,0.3,0.3,0.6l0,0v7c0,0.4-0.3,0.7-0.7,0.7H42.4c-0.4,0-0.7-0.3-0.7-0.7l0,0l0,0v-7c0-0.2,0.1-0.4,0.3-0.6l0,0l5.3-4
	v-1.6c0-0.2,0.1-0.4,0.3-0.6l0,0L57.9,34.1z M59.1,51.4h-1.5v3.5h1.5V51.4z M58.3,35.5l-9.7,7.3v12.1h7.5v-4.2
	c0-0.4,0.3-0.7,0.7-0.7h2.9c0.4,0,0.7,0.3,0.7,0.7l0,0v4.2H68V42.8L58.3,35.5z M47.3,45.8L43.1,49v6h4.1L47.3,45.8z M69.4,45.8v9.1
	h4.1v-6L69.4,45.8z M57.9,30.5c0.2-0.2,0.6-0.2,0.8,0l0,0l15.9,12c0.3,0.2,0.4,0.6,0.2,1c-0.2,0.3-0.6,0.4-1,0.2c0,0-0.1,0-0.1-0.1
	l0,0L58.3,31.9L42.8,43.6c-0.3,0.2-0.8,0.1-1-0.2s-0.1-0.7,0.1-0.9l0,0L57.9,30.5z"/>
<rect id="Rectangle_2524_1_" x="89" y="44.4" class="st4" width="19.6" height="9.3"/>
<path class="st5" d="M111.2,38.2l-1.9-1.9c-0.1-0.1-0.2-0.1-0.3-0.1h-2c0,0-16.7,0-16.9,0h-2.9v-3.4c0-0.1-0.1-0.2-0.1-0.3l-1.9-1.9
	c-0.2-0.2-0.5-0.2-0.7,0l-1.9,1.9c-0.1,0.1-0.1,0.2-0.1,0.3v9.1h1V33l1.4-1.4l1.4,1.4v22.4h-2.9v-14h-1v14.5c0,0.3,0.2,0.5,0.5,0.5
	h3.9c0.3,0,0.5-0.2,0.5-0.5v-15h3.4v3.4h-0.8c-0.6,0-1.1,0.5-1.1,1.1v7.5c0,0.6,0.5,1.1,1.1,1.1H108c0.6,0,1.1-0.5,1.1-1.1v-4.6h-1
	v4.6c0,0.1-0.1,0.1-0.1,0.1l0,0H89.8c-0.1,0-0.1-0.1-0.1-0.1l0,0v-7.5c0-0.1,0.1-0.1,0.1-0.1l0,0h0.8v1h1v-1H106v1h1v-1h0.8
	c0.1,0,0.1,0.1,0.1,0.1l0,0v3.2h1v-3.2c0-0.6-0.5-1.1-1.1-1.1H107v-3.4h1.9c0.1,0,0.2-0.1,0.3-0.1l1.9-1.9
	C111.4,38.7,111.4,38.4,111.2,38.2z M106.1,44.3H91.6v-3.4H106L106.1,44.3L106.1,44.3z M108.8,40H87.3v-2.9h21.5l1.4,1.4L108.8,40z
	 M94.5,48.5v-0.7c0-0.6-0.5-1.1-1.1-1.1h-0.7c-0.6,0-1.1,0.5-1.1,1.1v3.7h1v-1.6l1,1.3v0.3h1V51c0-0.1,0-0.2-0.1-0.3l-0.9-1.2
	C94.1,49.5,94.5,49.1,94.5,48.5z M93.5,48.5C93.5,48.6,93.4,48.6,93.5,48.5l-0.9,0.1v-0.8c0-0.1,0.1-0.1,0.1-0.1h0.7
	c0.1,0,0.1,0.1,0.1,0.1L93.5,48.5z M97.9,47.7v-1H96c-0.3,0-0.5,0.2-0.5,0.5V51c0,0.3,0.2,0.5,0.5,0.5h1.9v-1h-1.4v-1h1v-1h-1v-1
	L97.9,47.7z M100.3,47c-0.1-0.2-0.3-0.3-0.5-0.3h-0.5c-0.3,0-0.5,0.2-0.5,0.5v4.3h1v-3l1,2.6c0.1,0.2,0.3,0.3,0.5,0.3h0.5
	c0.3,0,0.5-0.2,0.5-0.5v-4.3h-1v3L100.3,47z M105.1,51.5v-3.9h1v-1h-2.9v1h1v3.9H105.1z M90.7,38h1v1h-1V38z M106.1,38h1v1h-1V38z
	 M84.4,36.1h1v1h-1V36.1z M84.4,40h1v1h-1V40z"/>
<circle id="Ellipse_416_3_" class="st4" cx="135.5" cy="48.1" r="4.5"/>
<path class="st5" d="M128.5,56.3h14c1.8,0,3.3-1.3,3.4-3.1c0.1-0.7-0.1-1.4-0.5-2c-1.4-2.4-2.1-5.1-2-7.8v-1c0-1.9-1.5-3.6-3.4-3.7
	c-0.1-0.4-0.3-0.7-0.6-0.9l2.1-4.6c0.5-1,0-2.2-1-2.6s-2.1,0-2.6,0.9l-0.2,0.4c-0.1,0.1-0.2,0.2-0.3,0.1l-0.1-0.1l-0.3-0.5
	c-0.4-0.9-1.5-1.2-2.3-0.8c-0.4,0.2-0.6,0.5-0.8,0.8l-0.3,0.6c-0.1,0.1-0.2,0.2-0.3,0.1l-0.1-0.1l-0.2-0.4c-0.4-1-1.6-1.5-2.6-1.1
	s-1.5,1.6-1.1,2.6c0,0.1,0,0.1,0.1,0.2l2.1,4.6c-0.3,0.2-0.5,0.5-0.6,0.9c-1.9,0.2-3.4,1.8-3.4,3.7v1c0,2.7-0.7,5.4-2,7.8
	c-0.4,0.6-0.5,1.3-0.5,2C125.2,55,126.7,56.4,128.5,56.3z M132.6,38.4h5.9c0.5,0,0.8,0.4,0.8,0.8c0,0.5-0.4,0.8-0.8,0.8l0,0h-5.9
	c-0.5,0-0.8-0.4-0.8-0.8C131.7,38.7,132.1,38.4,132.6,38.4z M130.2,32.9c-0.2-0.4-0.1-1,0.2-1.3c0.2-0.2,0.5-0.3,0.8-0.3
	c0.4,0,0.9,0.3,1,0.7l0.2,0.4c0.3,0.5,0.9,0.8,1.4,0.5c0.2-0.1,0.4-0.3,0.5-0.5l0.3-0.6c0.2-0.5,0.8-0.6,1.2-0.4
	c0.2,0.1,0.3,0.2,0.4,0.4l0.3,0.6c0.3,0.5,0.9,0.8,1.4,0.5c0.2-0.1,0.4-0.3,0.5-0.5l0.2-0.4c0.3-0.6,1-0.8,1.5-0.6
	c0.6,0.3,0.8,1,0.6,1.5l0,0l-2.1,4.6c-0.1,0-0.2,0-0.3,0h-1.2l0.7-3.3L137,34l-0.8,3.4h-0.5v-3.3h-0.8v3.3h-0.5l-0.8-3.4l-0.8,0.2
	l0.7,3.3h-1.2c-0.1,0-0.2,0-0.3,0L130.2,32.9z M126.2,51.7c1.4-2.5,2.2-5.3,2.2-8.2v-1c0-1.5,1.1-2.7,2.6-2.9
	c0.2,0.7,0.9,1.2,1.6,1.2h5.9c0.8,0,1.4-0.5,1.6-1.2c1.5,0.2,2.6,1.4,2.6,2.9v1c0,2.9,0.7,5.7,2.2,8.2c0.3,0.4,0.4,1,0.3,1.5
	c-0.1,1.3-1.3,2.3-2.6,2.3h-14c-1.3,0-2.5-1-2.6-2.3C125.8,52.7,126,52.2,126.2,51.7z M135.1,50.5v0.4h0.8v-0.4
	c0.7,0,1.3-0.6,1.3-1.3v-0.4c0-0.7-0.6-1.3-1.3-1.3v-1.3c0.2,0,0.4,0.2,0.4,0.4l0,0V47h0.8v-0.4c0-0.7-0.6-1.3-1.3-1.3v-0.4H135v0.4
	c-0.7,0-1.3,0.6-1.3,1.3V47c0,0.7,0.6,1.3,1.3,1.3v1.3c-0.2,0-0.4-0.2-0.4-0.4l0,0v-0.4h-0.8v0.4C133.8,49.9,134.4,50.5,135.1,50.5
	L135.1,50.5z M134.7,47.1v-0.4c0-0.2,0.2-0.4,0.4-0.4l0,0v1.3C134.8,47.6,134.7,47.4,134.7,47.1L134.7,47.1z M135.9,48.4
	c0.2,0,0.4,0.2,0.4,0.4l0,0v0.4c0,0.2-0.2,0.4-0.4,0.4l0,0V48.4z M135.5,52.6c2.5,0,4.6-2.1,4.6-4.6s-2.1-4.6-4.6-4.6
	s-4.6,2.1-4.6,4.6S132.9,52.6,135.5,52.6L135.5,52.6z M135.5,44.2c2.1,0,3.8,1.7,3.8,3.8s-1.7,3.8-3.8,3.8s-3.8-1.7-3.8-3.8l0,0
	C131.7,45.9,133.4,44.2,135.5,44.2z"/>
<path id="Path_9257_1_" class="st4" d="M161,55.1v-6.2h20.6v6.9H161V55.1z"/>
<path class="st5" d="M164.4,44.2h1.2v1.2h-1.2V44.2z M168,44.2h1.2v1.2H168V44.2z M172.8,44.2h1.2v1.2h-1.2V44.2z M176.5,44.2h1.2
	v1.2h-1.2V44.2z M191.6,48.5h-0.4l0.4-1.7c0.1-0.3-0.1-0.7-0.4-0.7h-0.1h-0.7l0.6-0.9c0.2-0.3,0.1-0.7-0.2-0.8
	c-0.3-0.2-0.6-0.1-0.8,0.2l-0.1,0.2c-0.1-0.3-0.4-0.5-0.7-0.4c-0.2,0.1-0.4,0.2-0.4,0.4l-0.1-0.2c-0.2-0.3-0.6-0.3-0.8-0.1
	c-0.3,0.2-0.3,0.5-0.2,0.8l0.6,0.9h-0.7c-0.3,0-0.6,0.3-0.6,0.6v0.1l0.4,1.7h-1v-1.2c0-1.4-1-2.7-2.4-3v-9.7c0-2.3-1.9-4.2-4.2-4.2
	h-1.2c-2.1,0-3.9,1.6-4.2,3.7c-1.8,0.3-3.1,1.8-3.1,3.6v0.6c0,0.3,0.3,0.6,0.6,0.6h6c0.3,0,0.6-0.3,0.6-0.6v-0.6
	c0-1.7-1.3-3.2-3-3.6c0.3-1.4,1.5-2.5,3-2.5h1.2c1.7,0,3,1.4,3,3v9.7c-0.4,0.1-0.9,0.3-1.2,0.5v-0.2c0-1.9-1.6-3.5-3.5-3.5h-13.6
	c-1.9,0-3.5,1.6-3.5,3.5v0.2c-1.3-1-3.2-0.7-4.2,0.6c-0.4,0.5-0.6,1.2-0.6,1.8v8.5c0,0.3,0.3,0.6,0.6,0.6h35.1
	c0.3,0,0.6-0.2,0.6-0.6c0-0.3-0.2-0.6-0.6-0.6l0,0H190v-3h1.8c0.3,0,0.6-0.3,0.6-0.6v-2.4C192.2,48.7,191.9,48.5,191.6,48.5z
	 M177.1,37.6h-4.8c0-1.3,1.1-2.4,2.5-2.4C176,35.2,177,36.3,177.1,37.6z M160.7,49.7v5.4h-3.6v-7.9c0-1,0.8-1.8,1.8-1.8
	s1.8,0.8,1.8,1.8V49.7z M162,49.7c0-0.3,0.3-0.6,0.6-0.6h7.3c0.3,0,0.6,0.3,0.6,0.6v1.8H162V49.7z M180.1,55.1H162v-2.4h18.1V55.1z
	 M180.1,51.5h-8.5v-1.8c0-0.3,0.3-0.6,0.6-0.6h7.3c0.3,0,0.6,0.3,0.6,0.6L180.1,51.5z M180.1,47.3V48c-0.2-0.1-0.4-0.1-0.6-0.1h-7.3
	c-0.4,0-0.9,0.2-1.2,0.5c-0.3-0.3-0.8-0.5-1.2-0.5h-7.3c-0.2,0-0.4,0-0.6,0.1v-3.3c0-1.3,1-2.3,2.3-2.3h13.6c1.3,0,2.3,1,2.3,2.3
	V47.3z M184.9,49.1v6h-3.6v-7.9c0-1,0.8-1.8,1.8-1.8s1.8,0.8,1.8,1.8V49.1z M189.2,47.3h1l-0.3,1.2h-1.5l-0.3-1.2H189.2z
	 M188.6,55.1h-2.4v-3h2.4V55.1z M191,50.9h-4.8v-1.2h4.8V50.9z"/>
<path id="Path_8804_1_" class="st4" d="M202.6,55.8V50c0,0,0.5-2.3,3.8-3.6s3.6-3.8,3.6-3.8s2.1,2,5.2,0c0,0,0.2,3.1,5.1,4.5
	c0.1,0.1,2.9,1.2,2.5,8.8C222.9,55.8,202.6,55.8,202.6,55.8z"/>
<path id="Path_8803_1_" class="st5" d="M220.2,46.4c-1.2-0.3-2.3-0.8-3.4-1.5l-1-1v-1.3c1.7-1.8,2.6-4.2,2.7-6.6
	c0-3.5-2.3-5.7-5.8-5.7s-5.8,2.2-5.8,5.7c0,2.5,1,4.8,2.7,6.6v1.3l-1,1c-1.1,0.6-2.2,1.1-3.4,1.5c-1.9,0.8-3.1,2.6-3,4.7v4.7
	c0,0.3,0.2,0.5,0.5,0.5h20.2c0.3,0,0.5-0.2,0.5-0.5l0,0v-4.7C223.3,49,222.1,47.1,220.2,46.4z M210.1,44.8l1.7,1l-1.2,1.2l-1-1.7
	L210.1,44.8z M212.6,48.9h0.1l0.8,6.4h-1.8L212.6,48.9z M212.8,47.8h-0.3l-0.3-0.9l0.5-0.5l0.5,0.5L212.8,47.8z M213.5,45.8l1.7-1
	l0.5,0.5l-1,1.7L213.5,45.8z M212.6,31.4c3,0,4.8,1.7,4.8,4.6v0.1c-1.3-0.2-2.3-1.2-2.6-2.4c0-0.3-0.3-0.5-0.6-0.4
	c-0.2,0-0.3,0.2-0.4,0.3c-0.5,1.3-3.8,2.4-5.9,3c0-0.2,0-0.4,0-0.5C207.9,33.1,209.6,31.4,212.6,31.4z M208,37.6
	c1.1-0.3,4.6-1.2,6.1-2.7c0.6,1.2,1.8,2.1,3.2,2.3c-0.4,2.9-2.4,5.8-4.7,5.8C210.4,43.1,208.6,40.4,208,37.6z M212.6,44.1
	c0.8,0,1.5-0.2,2.1-0.6v0.3l-2.1,1.3l-2.1-1.3v-0.3C211.1,43.9,211.9,44.1,212.6,44.1z M203.1,51.1c-0.1-1.6,0.8-3.1,2.3-3.7
	c1.2-0.3,2.3-0.8,3.4-1.4l1.3,2.2c0.2,0.3,0.5,0.3,0.7,0.2c0,0,0.1,0,0.1-0.1l0.4-0.4l0.3,0.6l-0.9,6.8h-3.9v-3.2h-1.1v3.2H203
	L203.1,51.1L203.1,51.1z M222.2,55.3h-2.7v-3.2h-1.1v3.2h-3.9l-0.9-6.8l0.3-0.6l0.4,0.4c0.2,0.2,0.5,0.2,0.8,0l0.1-0.1l1.3-2.2
	c1.1,0.6,2.2,1.1,3.4,1.4c1.5,0.6,2.4,2.1,2.3,3.7L222.2,55.3L222.2,55.3z"/>
<path id="Path_10075_1_" class="st4" d="M250.2,49.6v-1.3l-1.4-0.7l-1.2,0.7l-1.1-1.9l1.3-0.8l-0.2-1.4l-1.1-0.8l1.1-1.8l1.2,0.7
	l1.4-0.7v-1.4h2v1.4l1.3,0.7l1.3-0.7l0.9,1.8l-1.2,0.8v1.6l1.2,0.6l-1.2,1.9l-1-0.7l-1.3,0.7v1.3L250.2,49.6z"/>
<path class="st5" d="M264,41.6c0.3,0.1,0.6,0.1,0.7-0.2c0-0.1,0.1-0.2,0.1-0.3v-2.9c0-0.2-0.1-0.4-0.3-0.5l-13.1-7.4
	c-0.2-0.1-0.4-0.1-0.5,0l-13.1,7.4c-0.2,0.1-0.3,0.3-0.3,0.5v2.9c0,0.3,0.2,0.5,0.5,0.5c0.1,0,0.2,0,0.3-0.1l1.7-1v12.2h-2
	c-0.3,0-0.5,0.2-0.5,0.5l0,0v2.5c0,0.3,0.2,0.5,0.5,0.5l0,0h16.3c0.3,0,0.5-0.2,0.5-0.5s-0.2-0.5-0.5-0.5h-15.8v-1.4h25.1v1.4h-10.1
	c-0.3,0-0.5,0.2-0.5,0.5s0.2,0.5,0.5,0.5l0,0h10.7c0.3,0,0.5-0.2,0.5-0.5v-2.5c0-0.3-0.2-0.5-0.5-0.5l0,0h-2V40.6L264,41.6z
	 M238.7,38.6l12.5-7.1l12.5,7.1v1.6l-12.3-6.9c-0.2-0.1-0.4-0.1-0.5,0l-12.3,6.9L238.7,38.6L238.7,38.6z M261.2,52.8h-20.1V40
	l10-5.7l10,5.7v12.8H261.2z M249.6,40.2v1c-0.3,0.1-0.6,0.3-0.8,0.5l-0.9-0.5c-0.3-0.1-0.6-0.1-0.7,0.2l0,0l-1.1,1.8
	c-0.1,0.3-0.1,0.6,0.2,0.7l0.9,0.5c0,0.3,0,0.6,0,0.9l-0.9,0.5c-0.3,0.1-0.3,0.5-0.2,0.7l0,0l1.1,1.8c0.1,0.3,0.5,0.3,0.7,0.2l0,0
	l0.9-0.5c0.2,0.2,0.5,0.3,0.8,0.5v1c0,0.3,0.2,0.5,0.5,0.5h2.1c0.3,0,0.5-0.2,0.5-0.5v-1c0.3-0.1,0.6-0.3,0.8-0.5l0.9,0.5
	c0.3,0.1,0.6,0.1,0.7-0.2l0,0l1.1-1.8c0.1-0.3,0.1-0.6-0.2-0.7l0,0l-0.9-0.5c0-0.3,0-0.6,0-0.9L256,44c0.3-0.1,0.3-0.5,0.2-0.7l0,0
	l-1.1-1.8c-0.1-0.3-0.5-0.3-0.7-0.2l0,0l-0.9,0.5c-0.2-0.2-0.5-0.3-0.8-0.5v-1c0-0.3-0.2-0.5-0.5-0.5h-2.1
	C249.8,39.7,249.6,39.9,249.6,40.2z M250.7,41.6v-0.8h1.1v0.8c0,0.2,0.1,0.4,0.4,0.5c0.4,0.1,0.8,0.3,1.1,0.6
	c0.2,0.2,0.4,0.2,0.6,0.1l0.7-0.4l0.5,0.9l-0.7,0.4c-0.2,0.1-0.3,0.3-0.3,0.6c0.1,0.4,0.1,0.8,0,1.3c0,0.2,0.1,0.5,0.3,0.6l0.7,0.4
	l-0.5,0.9l-0.7-0.4c-0.2-0.1-0.5-0.1-0.6,0.1c-0.3,0.3-0.7,0.5-1.1,0.6c-0.2,0.1-0.4,0.3-0.4,0.5v0.8h-1.1v-0.8
	c0-0.2-0.1-0.4-0.4-0.5c-0.4-0.1-0.8-0.3-1.1-0.6c-0.2-0.2-0.4-0.2-0.6-0.1l-0.7,0.4l-0.5-0.9l0.7-0.4c0.2-0.1,0.3-0.3,0.3-0.6
	c-0.1-0.4-0.1-0.8,0-1.3c0-0.2-0.1-0.5-0.3-0.6l-0.7-0.4l0.5-0.9l0.7,0.4c0.2,0.1,0.5,0.1,0.6-0.1c0.3-0.3,0.7-0.5,1.1-0.6
	C250.5,42,250.7,41.8,250.7,41.6L250.7,41.6z M251.2,46.8c1,0,1.9-0.8,1.9-1.9s-0.8-1.9-1.9-1.9s-1.9,0.8-1.9,1.9
	S250.2,46.8,251.2,46.8z M251.2,44.1c0.5,0,0.8,0.4,0.8,0.8c0,0.5-0.4,0.8-0.8,0.8c-0.5,0-0.8-0.4-0.8-0.8l0,0
	C250.4,44.5,250.7,44.1,251.2,44.1L251.2,44.1z"/>
<circle id="Ellipse_416_2_" class="st4" cx="296.6" cy="50.1" r="6.2"/>
<path class="st5" d="M285.6,42.5h-5.5c-1.9,0-3.3-1.5-3.4-3.4v-5.5c0-1.9,1.5-3.3,3.4-3.4h5.5c1.9,0,3.3,1.5,3.4,3.4v5.5
	C289,41,287.5,42.5,285.6,42.5z M280.1,32c-1,0-1.7,0.8-1.7,1.7v5.5c0,1,0.8,1.7,1.7,1.7h5.5c1,0,1.7-0.8,1.7-1.7v-5.5
	c0-1-0.8-1.7-1.7-1.7H280.1z M299.4,42.5h-5.5c-1.8,0-3.3-1.5-3.4-3.4v-5.5c0-1.9,1.5-3.3,3.4-3.4h5.5c1.9,0,3.3,1.5,3.4,3.4v5.5
	C302.8,41,301.3,42.5,299.4,42.5z M293.9,32c-1,0-1.7,0.8-1.7,1.7v5.5c0,1,0.8,1.7,1.7,1.7h5.5c1,0,1.7-0.8,1.7-1.7v-5.5
	c0-1-0.8-1.7-1.7-1.7H293.9z M296.7,56.3c-3.4,0-6.1-2.7-6.1-6.1c0-3.4,2.7-6.1,6.1-6.1s6.1,2.7,6.1,6.1l0,0
	C302.8,53.6,300,56.3,296.7,56.3z M296.7,45.8c-2.5,0-4.5,2-4.5,4.5s2,4.5,4.5,4.5s4.5-2,4.5-4.5C301.1,47.8,299.1,45.8,296.7,45.8z
	 M285.6,56.3h-5.5c-1.9,0-3.3-1.5-3.4-3.4v-5.5c0-1.8,1.5-3.3,3.4-3.4h5.5c1.9,0,3.3,1.5,3.4,3.4V53C289,54.8,287.5,56.3,285.6,56.3
	z M280.1,45.8c-1,0-1.7,0.8-1.7,1.7V53c0,1,0.8,1.7,1.7,1.7h5.5c1,0,1.7-0.8,1.7-1.7v-5.5c0-1-0.8-1.7-1.7-1.7H280.1z"/>
<g id="Group_6211" transform="translate(-884 -293)">
	<g id="Group_7925" transform="translate(884.002 293)">
		<path id="Path_12855" class="st5" d="M3.4,72h7.3l-0.2,0.8L10,73.4l-0.5,0.4H4.6l-1-0.8l-0.2-0.7L3.4,72z"/>
		<path id="Path_12856" class="st5" d="M15.6,72h7.3l-0.2,0.8l-0.5,0.6l-0.5,0.4h-4.9l-1-0.8l-0.2-0.7L15.6,72z"/>
		<g id="balance">
			<g id="Group_6689">
				<path id="Path_11033" class="st5" d="M23,71.8L23,71.8l-3.3-7.2l0.8-0.4l-0.3-0.6L19.4,64l-0.1-0.2c-0.1-0.2-0.3-0.2-0.4-0.2
					s-0.1,0.1-0.2,0.2L18.6,64c-0.6-0.3-1.2-0.4-1.8-0.4H14V63h0.7v-0.7h-0.6l0.2-1c0.2-0.7-0.3-1.5-1-1.7s-1.5,0.3-1.7,1
					c-0.1,0.2-0.1,0.4,0,0.7l0.2,1h-0.6V63H12v0.7H9.2c-0.6,0-1.2,0.1-1.8,0.4l-0.1-0.2c-0.1-0.2-0.3-0.2-0.4-0.2s-0.1,0.1-0.2,0.2
					l-0.1,0.2l-0.8-0.4l-0.3,0.6l0.8,0.4L3,71.9V72c0,1.3,1,2.3,2.3,2.3h3.3c1.3,0,2.3-1,2.3-2.3v-0.1l-3.3-7.2
					c0.5-0.2,1-0.3,1.5-0.3H12v12.2l-1.1,1.1H9.7c-0.9,0-1.7,0.7-1.7,1.7c0,0.2,0.1,0.3,0.3,0.3l0,0h9.3c0.2,0,0.3-0.1,0.3-0.3
					c0-0.9-0.7-1.7-1.7-1.7H15l-1-1.2V64.3h2.8c0.5,0,1,0.1,1.5,0.3L15,71.8v0.1c0,1.3,1,2.3,2.3,2.3h3.3c1.3,0,2.3-1,2.3-2.3
					C23,71.9,23,71.9,23,71.8L23,71.8z M8.7,73.6H5.4c-0.8,0-1.5-0.6-1.6-1.3h6.6C10.2,73.1,9.5,73.6,8.7,73.6z M10.2,71.6H3.9
					l3-6.6C7,65,7,65,7.1,65L10.2,71.6z M12.5,60.6c0.3-0.3,0.7-0.4,1-0.1l0.1,0.1c0.1,0.2,0.2,0.4,0.1,0.6l-0.3,1.1h-0.8l-0.3-1.1
					C12.3,61,12.3,60.8,12.5,60.6z M12.7,63.6V63h0.7v0.7L12.7,63.6z M13.4,64.3v12h-0.7v-12H13.4z M16.4,78.3
					c0.4,0,0.8,0.3,0.9,0.7H8.8c0.1-0.4,0.5-0.7,0.9-0.7H16.4z M14.2,77.6h-2.4l0.7-0.7h1.1L14.2,77.6z M18.9,65c0.1,0,0.1,0,0.2,0
					l3.1,6.7h-6.3L18.9,65z M20.7,73.6h-3.3c-0.8,0-1.5-0.6-1.6-1.3h6.6C22.2,73.1,21.5,73.6,20.7,73.6z"/>
			</g>
		</g>
	</g>
</g>
<g id="meeting_2_">
	<g id="Group_6713" transform="translate(0 3.158)">
		<g id="Group_6712">
			<path id="Path_11048" class="st5" d="M45.7,63.4c0.9-0.9,1-2.3,0.1-3.2s-2.3-1-3.2-0.1s-1,2.3-0.1,3.2c0.1,0.1,0.3,0.3,0.4,0.4
				c-0.4,0.3-0.7,0.8-0.7,1.4v2.3h-1.3v-1.6c0-1.2-0.9-2.1-2-2.3c0.9-0.9,1-2.3,0.1-3.2s-2.3-1-3.2-0.1s-1,2.3-0.1,3.2l0.1,0.1
				c-1.2,0.1-2,1.1-2,2.3v1.6h-1.3V65c0-0.5-0.3-1.1-0.7-1.4c1.1-0.7,1.4-2.1,0.7-3.2c-0.7-1.1-2.1-1.4-3.2-0.7s-1.4,2.1-0.7,3.2
				c0.1,0.2,0.2,0.3,0.4,0.4c-0.8,0.1-1.4,0.8-1.4,1.6v4.9c0,0.8,0.5,1.4,1.3,1.6v5h0.7v-4.9h3v4.6c0,0.2,0.1,0.3,0.3,0.3h2
				c0.2,0,0.3-0.1,0.3-0.3v-5.2h2v4.9h-1.3v0.7h3.3v-0.7h-1.3v-4.9h2v5.2c0,0.2,0.1,0.3,0.3,0.3h2c0.2,0,0.3-0.1,0.3-0.3v-4.6h3v4.9
				h0.7v-5c0.8-0.2,1.3-0.8,1.3-1.6V65C47.1,64.2,46.5,63.5,45.7,63.4z M42.5,61.7c0-0.9,0.7-1.6,1.6-1.6c0.9,0,1.6,0.7,1.6,1.6
				c0,0.9-0.7,1.6-1.6,1.6l0,0C43.3,63.4,42.5,62.6,42.5,61.7z M35.6,61.7c0-0.9,0.7-1.6,1.6-1.6c0.9,0,1.6,0.7,1.6,1.6
				c0,0.9-0.7,1.6-1.6,1.6l0,0C36.4,63.4,35.6,62.6,35.6,61.7z M37.8,64l-0.5,1.4L36.8,64H37.8z M34.3,65.7c0-0.9,0.7-1.6,1.6-1.6
				H36l0.9,2.4c0.1,0.2,0.3,0.3,0.4,0.2c0.1,0,0.2-0.1,0.2-0.2l0.9-2.4h0.1c0.9,0,1.6,0.7,1.6,1.6v1.6h-1.3c-0.2,0-0.3,0.1-0.3,0.3
				v1.3H36v-1.3c0-0.2-0.1-0.3-0.3-0.3h-1.3v-1.6H34.3z M28.8,61.7c0-0.9,0.7-1.6,1.6-1.6s1.6,0.7,1.6,1.6c0,0.9-0.7,1.6-1.6,1.6
				C29.5,63.4,28.8,62.6,28.8,61.7L28.8,61.7z M34.3,75.8H33v-4.6c0-0.2-0.1-0.3-0.3-0.3h-3.6c-0.5,0-1-0.4-1-1V65c0-0.5,0.4-1,1-1
				h1.6c0.5,0,1,0.4,1,1v2.6c0,0.2,0.1,0.3,0.3,0.3h3.3v1h-4.6v-3H30v3.3c0,0.2,0.1,0.3,0.3,0.3h3c0.5,0,1,0.4,1,1V75.8z M39.6,70.3
				h-4.7c0-0.2-0.1-0.5-0.3-0.7h5.2C39.8,69.8,39.7,70,39.6,70.3L39.6,70.3z M46.5,69.9c0,0.5-0.4,1-1,1h-3.6
				c-0.2,0-0.3,0.1-0.3,0.3v4.6h-1.3v-5.2c0-0.5,0.4-1,1-1h3c0.2,0,0.3-0.1,0.3-0.3V66h-0.7v3h-4.6v-1h3.3c0.2,0,0.3-0.1,0.3-0.3V65
				c0-0.5,0.4-1,1-1h1.6c0.5,0,1,0.4,1,1V69.9z"/>
		</g>
	</g>
	<g id="Group_6715" transform="translate(9.72 11.727)">
		<g id="Group_6714">
			<rect id="Rectangle_1947" x="26.8" y="58.9" class="st5" width="1.2" height="0.6"/>
		</g>
	</g>
	<g id="Group_6717" transform="translate(3.509)">
		<g id="Group_6716">
			<path id="Path_11049" class="st5" d="M32.1,59.6h-4.6c-0.2,0-0.3,0.1-0.3,0.3v1.6c0,0.2,0.1,0.3,0.3,0.3h1.3v0.7
				c0,0.2,0.1,0.3,0.3,0.3c0.1,0,0.1,0,0.2-0.1l1.2-0.9H32c0.2,0,0.3-0.1,0.3-0.3l0,0V60C32.5,59.8,32.3,59.7,32.1,59.6z M31.8,61.3
				h-1.3c-0.1,0-0.1,0-0.2,0.1L29.5,62v-0.3c0-0.2-0.1-0.3-0.3-0.3h-1.3v-1h3.9L31.8,61.3z"/>
		</g>
	</g>
	<g id="Group_6719" transform="translate(12.326 1.303)">
		<g id="Group_6718">
			<polygon id="Rectangle_1948" class="st5" points="26.6,59.6 27.2,59.6 27.2,59.6 			"/>
		</g>
	</g>
	<g id="Group_6721" transform="translate(13.629 1.303)">
		<g id="Group_6720">
			<polygon id="Rectangle_1949" class="st5" points="26.6,59.6 27.2,59.6 27.2,59.6 			"/>
		</g>
	</g>
	<g id="Group_6723" transform="translate(14.932 1.303)">
		<g id="Group_6722">
			<polygon id="Rectangle_1950" class="st5" points="26.5,59.6 27.1,59.6 27.1,59.6 			"/>
		</g>
	</g>
</g>
<g id="Group_6213" transform="translate(-885 -358)">
	<g id="building" transform="translate(885 334)">
		<g id="Group_6200" transform="translate(0 24)">
			<g id="Group_6199">
				<path id="Path_10085" class="st5" d="M72.3,78.9H70V65.2c0-0.2-0.2-0.4-0.4-0.4l0,0h-6.3V60c0-0.2-0.2-0.4-0.4-0.4l0,0h-9.6
					c-0.2,0-0.4,0.2-0.4,0.4l0,0v18.9h-2.2c-0.2,0-0.4,0.2-0.4,0.4s0.2,0.4,0.4,0.4h21.5c0.2,0,0.4-0.2,0.4-0.4S72.5,78.9,72.3,78.9
					L72.3,78.9z M62.6,78.9h-8.9V60.4h8.9V78.9z M69.3,78.9h-5.9V65.6h5.9V78.9z"/>
				<path id="Path_10086" class="st5" d="M65.2,69.3h2.2c0.2,0,0.4-0.2,0.4-0.4l0,0v-2.2c0-0.2-0.2-0.4-0.4-0.4l0,0h-2.2
					c-0.2,0-0.4,0.2-0.4,0.4l0,0v2.2C64.9,69.1,65,69.3,65.2,69.3L65.2,69.3z M65.6,67.1h1.5v1.5h-1.5V67.1z"/>
				<path id="Path_10087" class="st5" d="M65.2,73h2.2c0.2,0,0.4-0.2,0.4-0.4l0,0v-2.2c0-0.2-0.2-0.4-0.4-0.4l0,0h-2.2
					c-0.2,0-0.4,0.2-0.4,0.4l0,0v2.2C64.9,72.8,65,73,65.2,73L65.2,73z M65.6,70.8h1.5v1.5h-1.5V70.8z"/>
				<path id="Path_10088" class="st5" d="M65.2,76.7h2.2c0.2,0,0.4-0.2,0.4-0.4l0,0v-2.2c0-0.2-0.2-0.4-0.4-0.4l0,0h-2.2
					c-0.2,0-0.4,0.2-0.4,0.4l0,0v2.2C64.9,76.5,65,76.7,65.2,76.7L65.2,76.7z M65.6,74.5h1.5V76h-1.5V74.5z"/>
				<path id="Path_10089" class="st5" d="M58.9,69.3h2.2c0.2,0,0.4-0.2,0.4-0.4v-2.2c0-0.2-0.2-0.4-0.4-0.4h-2.2
					c-0.2,0-0.4,0.2-0.4,0.4v2.2C58.6,69.1,58.7,69.3,58.9,69.3z M59.3,67.1h1.5v1.5h-1.5V67.1z"/>
				<path id="Path_10090" class="st5" d="M58.9,65.6h2.2c0.2,0,0.4-0.2,0.4-0.4V63c0-0.2-0.2-0.4-0.4-0.4h-2.2
					c-0.2,0-0.4,0.2-0.4,0.4v2.2C58.6,65.4,58.7,65.6,58.9,65.6z M59.3,63.4h1.5v1.5h-1.5V63.4z"/>
				<path id="Path_10091" class="st5" d="M58.9,73h2.2c0.2,0,0.4-0.2,0.4-0.4v-2.2c0-0.2-0.2-0.4-0.4-0.4h-2.2
					c-0.2,0-0.4,0.2-0.4,0.4v2.2C58.6,72.8,58.7,73,58.9,73z M59.3,70.8h1.5v1.5h-1.5V70.8z"/>
				<path id="Path_10092" class="st5" d="M58.9,76.7h2.2c0.2,0,0.4-0.2,0.4-0.4l0,0v-2.2c0-0.2-0.2-0.4-0.4-0.4l0,0h-2.2
					c-0.2,0-0.4,0.2-0.4,0.4l0,0v2.2C58.6,76.5,58.7,76.7,58.9,76.7L58.9,76.7z M59.3,74.5h1.5V76h-1.5V74.5z"/>
				<path id="Path_10093" class="st5" d="M55.2,69.3h2.2c0.2,0,0.4-0.2,0.4-0.4v-2.2c0-0.2-0.2-0.4-0.4-0.4h-2.2
					c-0.2,0-0.4,0.2-0.4,0.4v2.2C54.9,69.1,55,69.3,55.2,69.3z M55.6,67.1h1.5v1.5h-1.5V67.1z"/>
				<path id="Path_10094" class="st5" d="M55.2,65.6h2.2c0.2,0,0.4-0.2,0.4-0.4l0,0V63c0-0.2-0.2-0.4-0.4-0.4l0,0h-2.2
					c-0.2,0-0.4,0.2-0.4,0.4l0,0v2.2C54.9,65.4,55,65.6,55.2,65.6L55.2,65.6z M55.6,63.4h1.5v1.5h-1.5V63.4z"/>
				<path id="Path_10095" class="st5" d="M55.2,73h2.2c0.2,0,0.4-0.2,0.4-0.4v-2.2c0-0.2-0.2-0.4-0.4-0.4h-2.2
					c-0.2,0-0.4,0.2-0.4,0.4v2.2C54.9,72.8,55,73,55.2,73z M55.6,70.8h1.5v1.5h-1.5V70.8z"/>
				<path id="Path_10096" class="st5" d="M55.2,76.7h2.2c0.2,0,0.4-0.2,0.4-0.4l0,0v-2.2c0-0.2-0.2-0.4-0.4-0.4l0,0h-2.2
					c-0.2,0-0.4,0.2-0.4,0.4l0,0v2.2C54.9,76.5,55,76.7,55.2,76.7L55.2,76.7z M55.6,74.5h1.5V76h-1.5V74.5z"/>
			</g>
		</g>
	</g>
</g>
<g id="Group_6214" transform="translate(-884.001 -391)">
	<g id="Group_7974" transform="translate(884.004 391)">
		<g id="Group_7923">
			<circle id="Ellipse_345" class="st6" cx="92.1" cy="62.7" r="3"/>
			<g id="Group_7922">
				<g id="Group_6691" transform="translate(0 4.939)">
					<g id="Group_6690">
						<path id="Path_11040" class="st5" d="M91.2,72.3l-0.7-2.1c-0.2-0.7-0.8-1.2-1.6-1.4l-2-0.4v-0.2c0.3-0.2,0.6-0.5,0.9-0.8h0.6
							c0.5,0,0.9-0.4,0.9-0.9V63c0-2.1-1.7-3.8-3.8-3.8c-2.1,0-3.8,1.7-3.8,3.8v2.1c0,0.6,0.4,1,0.9,1.2c0.2,0.8,0.7,1.6,1.4,2v0.2
							l-2,0.4c-0.7,0.1-1.4,0.7-1.6,1.4l-0.1,0.4l-1-1c-0.1-0.1-0.1-0.3,0-0.4l1.2-1.2l-2.2-2.2L77,67.2c-0.8,0.8-0.8,2.1,0,2.9l4,4
							c0.8,0.8,2.1,0.8,2.9,0l1.4-1.3l-0.4-0.4L91.2,72.3z M88.7,66.7c0,0.2-0.1,0.3-0.3,0.3h-0.2c0.1-0.2,0.2-0.4,0.2-0.6
							c0.1,0,0.2-0.1,0.4-0.1L88.7,66.7z M88.4,65.8v-1c0.3,0.2,0.4,0.5,0.2,0.8C88.6,65.6,88.5,65.7,88.4,65.8z M82.5,65.8
							c-0.3-0.2-0.4-0.5-0.2-0.8c0.1-0.1,0.1-0.2,0.2-0.2V65.8z M82.5,63.8v0.3c-0.1,0-0.2,0.1-0.3,0.1v-1.1c0-1.8,1.4-3.3,3.2-3.3
							c1.8,0,3.3,1.4,3.3,3.2v0.1v1.1c-0.1-0.1-0.2-0.1-0.3-0.1v-0.3h-0.3c-0.9,0-1.7-0.3-2.3-1l-0.3-0.3l-0.3,0.3
							c-0.6,0.6-1.4,1-2.3,1H82.5z M83.1,65.8v-1.5c0.9-0.1,1.7-0.4,2.4-1.1c0.6,0.6,1.5,1,2.4,1.1v1.5c0,0.4-0.1,0.8-0.3,1.2h-2
							v0.6H87c-1,0.9-2.5,0.8-3.3-0.2C83.3,67,83.1,66.4,83.1,65.8L83.1,65.8z M86.3,68.7L86.3,68.7l-0.9,0.9l-0.9-0.9l0,0
							C85.1,68.8,85.8,68.8,86.3,68.7z M81,70.5c0.2-0.5,0.6-0.9,1.1-1l2.1-0.4l1.3,1.3l1.3-1.3l2.1,0.4c0.5,0.1,1,0.5,1.1,1
							l0.4,1.3h-6.1l-1.1-1.2l-1.3,1.2c-0.1,0.1-0.3,0.1-0.4,0l-0.6-0.6L81,70.5z M78.2,66.7l1.4,1.4l-0.3,0.3L77.9,67L78.2,66.7z
							 M83.4,73.7c-0.6,0.6-1.5,0.6-2.1,0l-4-4c-0.6-0.6-0.6-1.5,0-2.1l0.2-0.2l1.4,1.4l0,0c-0.3,0.3-0.3,0.9,0,1.3l2.1,2.1
							c0.2,0.2,0.4,0.3,0.6,0.3s0.5-0.1,0.6-0.2l0,0l1.4,1.4L83.4,73.7z M84,73.1l-1.4-1.4l0.4-0.4l1.4,1.4L84,73.1z"/>
					</g>
				</g>
				<g id="Group_6701" transform="translate(0 2.731)">
					<g id="Group_6700">
						<path id="Path_11042" class="st5" d="M85.4,59.5c-3.8,0-7.2,2.7-8.1,6.4L76.7,65l-0.5,0.3l1,1.7l1.7-1l-0.3-0.5L78,65.9
							c1-4.1,5.2-6.6,9.3-5.6c0.1,0,0.3,0.1,0.4,0.1l0.2-0.6C87.1,59.6,86.3,59.5,85.4,59.5z"/>
					</g>
				</g>
				<g id="Group_6703" transform="translate(16.1 7.659)">
					<g id="Group_6702">
						<path id="Path_11043" class="st5" d="M78.4,60.2l-1.7-1l-1,1.7l0.5,0.3l0.5-0.9c0.9,2.5,0.4,5.3-1.3,7.3l0.5,0.4
							c1.8-2.2,2.3-5.2,1.4-7.8l0.9,0.5L78.4,60.2z"/>
					</g>
				</g>
				<g id="Group_7921" transform="translate(13.787)">
					<g id="Group_6705">
						<g id="Group_6704">
							<path id="Path_11044" class="st5" d="M78.4,59.6c-1.6,0-3,1.4-3,3s1.4,3,3,3s3-1.4,3-3c0-0.8-0.3-1.5-0.9-2.1
								C80,60,79.2,59.6,78.4,59.6z M78.4,65c-1.3,0-2.3-1.1-2.3-2.3s1.1-2.3,2.3-2.3c1.3,0,2.3,1.1,2.3,2.3l0,0
								C80.8,63.9,79.7,65,78.4,65z"/>
						</g>
					</g>
					<g id="Group_6707" transform="translate(2.153 1.12)">
						<g id="Group_6706">
							<path id="Path_11045" class="st5" d="M77.2,62c0-0.1,0-0.1-0.1-0.2c0-0.1,0-0.1-0.1-0.1l-0.1-0.1l-0.1-0.1l-0.1-0.1
								c-0.1,0-0.1-0.1-0.2-0.1s-0.1,0-0.2-0.1h-0.1h-0.1H76l0.1-0.2v-0.1v-0.1v-0.1v-0.1v-0.1l0.1-0.1h0.1h0.1h0.1h0.1h0.1h0.1h0.1
								H77v-0.1V60v-0.1h-0.1h-0.1c0,0,0,0-0.1,0h-0.1h-0.1l0,0v-0.4H76V60l0,0c-0.1,0-0.1,0-0.2,0.1c-0.1,0-0.1,0.1-0.1,0.1
								l-0.1,0.1c0,0-0.1,0.1-0.1,0.2l-0.1,0.2c0,0.1,0,0.1,0,0.2c0,0.1,0,0.1,0,0.2c0,0.1,0,0.1,0.1,0.2l0.1,0.1l0.1,0.1l0.1,0.1
								l0.1,0.1c0.1,0,0.1,0.1,0.2,0.1s0.1,0,0.2,0.1h0.1h0.1c0,0,0,0,0.1,0l0.1,0.1c0,0,0,0,0,0.1v0.1v0.1v0.1l-0.1,0.1
								c0,0-0.1,0-0.1,0.1h-0.1h-0.1H76h-0.1h-0.1h-0.1c0,0,0,0-0.1,0c0,0,0,0-0.1,0l-0.1-0.1v0.1V63v0.1h0.1c0.1,0,0.1,0,0.2,0h0.1
								c0,0,0.1,0,0.2,0s0.1,0,0.2,0l0,0v0.4h0.5V63l0,0c0.1,0,0.1,0,0.2-0.1c0.1,0,0.1-0.1,0.2-0.1l0.1-0.1c0-0.1,0.1-0.1,0.1-0.2
								l0.1-0.2c0-0.1,0-0.1,0-0.2C77.3,62.1,77.3,62,77.2,62L77.2,62z"/>
						</g>
					</g>
				</g>
			</g>
		</g>
	</g>
</g>
<g id="Group_6215" transform="translate(-884.999 -422)">
	<g id="certificate2" transform="translate(882.205 422)">
		<g id="Group_6198" transform="translate(2.794 0)">
			<path id="Path_10076" class="st5" d="M110.1,66.7h-7.5c-0.2,0-0.3,0.2-0.2,0.3c0,0.1,0.1,0.2,0.2,0.2h7.5c0.2,0,0.3-0.1,0.3-0.2
				C110.5,66.9,110.4,66.8,110.1,66.7C110.2,66.7,110.2,66.7,110.1,66.7z"/>
			<path id="Path_10077" class="st5" d="M110.1,68.8h-7.5c-0.2,0-0.3,0.1-0.3,0.2c0,0.2,0.1,0.3,0.2,0.3h0.1h7.5
				c0.2,0,0.3-0.1,0.3-0.2C110.5,69,110.4,68.8,110.1,68.8C110.2,68.8,110.2,68.8,110.1,68.8z"/>
			<path id="Path_10078" class="st5" d="M110.1,70.9h-7.5c-0.2,0-0.3,0.2-0.2,0.3c0,0.1,0.1,0.2,0.2,0.2h7.5c0.2,0,0.3-0.1,0.3-0.2
				C110.5,71,110.4,70.9,110.1,70.9C110.2,70.9,110.2,70.9,110.1,70.9z"/>
			<path id="Path_10079" class="st5" d="M110.4,73.2c0-0.2-0.1-0.3-0.3-0.3h-7.5c-0.2,0-0.3,0.1-0.3,0.2c0,0.2,0.1,0.3,0.2,0.3h0.1
				h7.5C110.3,73.5,110.4,73.4,110.4,73.2z"/>
			<path id="Path_10080" class="st5" d="M102.6,75.9c-0.2,0-0.3,0.2-0.2,0.3c0,0.1,0.1,0.2,0.2,0.2h3.8c0.2,0,0.3-0.2,0.2-0.3
				c0-0.1-0.1-0.2-0.2-0.2H102.6z"/>
			<path id="Path_10081" class="st5" d="M113.5,63.3v-1c0-0.4-0.3-0.7-0.7-0.7h-6c-0.4,0-0.7,0.3-0.7,0.7v1c0,0.4,0.3,0.7,0.7,0.7
				h0.5c0.2,0,0.3-0.2,0.2-0.3c0-0.1-0.1-0.2-0.2-0.2h-0.5c0,0-0.1,0-0.1-0.1l0,0v-1c0,0,0-0.1,0.1-0.1l0,0h6c0,0,0.1,0,0.1,0.1l0,0
				v1c0,0,0,0.1-0.1,0.1l0,0h-4.1c-0.2,0-0.3,0.2-0.2,0.3c0,0.1,0.1,0.2,0.2,0.2h4.1C113.2,63.9,113.5,63.6,113.5,63.3z"/>
			<path id="Path_10082" class="st5" d="M115.7,77.5c-0.2,0-0.3,0.1-0.3,0.3v0.4c0,0.5-0.4,0.9-0.9,0.9h-13c-0.5,0-0.9-0.4-0.9-0.9
				V64.1c0-0.1,0-0.1,0-0.2h2.7c0.6,0,1-0.4,1-1l0,0v-2.7c0.1,0,0.1,0,0.2,0h9.9c0.5,0,0.9,0.4,0.9,0.9V65c0,0.2,0.1,0.3,0.2,0.3
				c0.2,0,0.3-0.1,0.3-0.2V65v-3.9c0-0.8-0.6-1.4-1.4-1.4h-9.9c-0.4,0-0.8,0.2-1,0.4l-3,3c-0.3,0.3-0.4,0.6-0.4,1v14.1
				c0,0.8,0.6,1.4,1.4,1.4h13c0.8,0,1.4-0.6,1.4-1.4v-0.4C116,77.6,115.9,77.5,115.7,77.5z M103.8,60.6v2.3c0,0.2-0.2,0.4-0.4,0.4
				h-2.3L103.8,60.6z"/>
			<path id="Path_10083" class="st5" d="M119.7,70.1c0.4-0.5,0.2-1.3-0.3-1.6c-0.1-0.1-0.2-0.1-0.3-0.1c-0.2-0.1-0.4-0.3-0.4-0.5
				c0-0.6-0.6-1.2-1.2-1.1c-0.1,0-0.2,0-0.3,0c-0.2,0.1-0.5,0-0.6-0.2c-0.4-0.5-1.1-0.6-1.6-0.2c-0.1,0.1-0.1,0.1-0.2,0.2
				c-0.1,0.2-0.4,0.3-0.6,0.2c-0.6-0.2-1.3,0.2-1.5,0.8c0,0.1,0,0.2,0,0.3c0,0.2-0.2,0.5-0.4,0.5c-0.6,0.2-0.9,0.9-0.7,1.5
				c0,0.1,0.1,0.2,0.1,0.3c0.1,0.2,0.1,0.5,0,0.7c-0.4,0.5-0.2,1.3,0.3,1.6c0.1,0.1,0.2,0.1,0.3,0.1c0.2,0.1,0.4,0.3,0.4,0.5
				c0,0.6,0.4,1,1,1.1v2.7c0,0.3,0.3,0.6,0.6,0.6c0.1,0,0.2,0,0.3-0.1l1.1-0.7l0,0l1.1,0.7c0.3,0.2,0.7,0.1,0.9-0.2
				c0.1-0.1,0.1-0.2,0.1-0.3v-2.7c0.6-0.1,1-0.6,1-1.1c0-0.2,0.2-0.5,0.4-0.5c0.6-0.2,0.9-0.9,0.7-1.5c0-0.1-0.1-0.2-0.1-0.3
				C119.6,70.6,119.6,70.3,119.7,70.1z M117.1,76.9l-1.1-0.7c-0.2-0.1-0.5-0.1-0.7,0l-1.1,0.7l0,0l0,0v-2.7c0.2,0,0.4,0.1,0.5,0.2
				c0.4,0.5,1.1,0.6,1.6,0.2c0.1-0.1,0.1-0.1,0.2-0.2c0.1-0.2,0.3-0.2,0.5-0.2L117.1,76.9C117.2,76.9,117.1,76.9,117.1,76.9
				L117.1,76.9z M119.2,71.1c0.2,0.3,0.1,0.6-0.2,0.8l-0.1,0.1c-0.5,0.2-0.8,0.6-0.8,1.1c0,0.2-0.1,0.3-0.2,0.4s-0.4,0.2-0.5,0.1
				c-0.5-0.1-1,0-1.3,0.4c-0.2,0.3-0.6,0.3-0.8,0.1l-0.1-0.1c-0.2-0.3-0.6-0.5-0.9-0.5c-0.1,0-0.2,0-0.3,0c-0.3,0.1-0.6-0.1-0.7-0.4
				V73c0-0.5-0.3-0.9-0.8-1.1c-0.3-0.1-0.5-0.4-0.4-0.7c0,0,0-0.1,0.1-0.1c0.3-0.4,0.3-0.9,0-1.3c-0.2-0.3-0.1-0.6,0.2-0.8l0.1-0.1
				c0.5-0.2,0.8-0.6,0.8-1.1c0-0.3,0.3-0.6,0.6-0.6h0.1c0.5,0.1,1,0,1.3-0.4c0.2-0.3,0.6-0.3,0.8-0.1l0.1,0.1
				c0.3,0.4,0.8,0.5,1.3,0.4c0.3-0.1,0.6,0.1,0.7,0.4v0.1c0,0.5,0.3,0.9,0.8,1.1c0.3,0.1,0.5,0.4,0.4,0.7c0,0,0,0.1-0.1,0.1
				C119,70.2,119,70.7,119.2,71.1z"/>
			<path id="Path_10084" class="st5" d="M115.7,68c-1.4,0-2.5,1.1-2.5,2.5s1.1,2.5,2.5,2.5s2.5-1.1,2.5-2.5l0,0
				C118.2,69.1,117.1,68,115.7,68z M115.7,72.3c-1,0-1.9-0.8-1.9-1.9c0-1,0.8-1.9,1.9-1.9c1,0,1.9,0.8,1.9,1.9
				S116.7,72.3,115.7,72.3L115.7,72.3z"/>
		</g>
	</g>
</g>
<rect x="122.3" y="58.6" class="st1" width="24" height="22"/>
<path class="st5" d="M138.6,68l-4.9,4.3l0,0c-0.3,0.3-0.3,0.9,0,1.2c0.2,0.2,0.4,0.2,0.6,0.2c0.2,0,0.4-0.1,0.6-0.3l4.3-4.9
	c0.1-0.2,0.1-0.4,0-0.6C139,67.9,138.7,67.9,138.6,68z M134.3,62.9c-5.5,0-10,4.5-10,10c0,1,0.2,2.1,0.5,3c0.1,0.2,0.2,0.3,0.4,0.3
	h18.3c0.2,0,0.3-0.1,0.4-0.3c1.7-5.3-1.2-10.9-6.5-12.6C136.3,63.1,135.3,62.9,134.3,62.9z M142.2,73.3h1.2c0,0.7-0.1,1.4-0.3,2.1
	h-17.6c-0.2-0.7-0.3-1.4-0.3-2.1h1.2c0.2,0,0.4-0.2,0.4-0.4c0-0.2-0.2-0.4-0.4-0.4l0,0h-1.2c0.1-1.3,0.4-2.6,1-3.8l1.1,0.6
	c0.2,0.1,0.5,0,0.6-0.2s0-0.4-0.1-0.6l-1.1-0.6c0.7-1.1,1.7-2.1,2.8-2.8l0.6,1.1c0.1,0.2,0.4,0.3,0.6,0.2s0.3-0.4,0.2-0.6l-0.6-1.1
	c1.2-0.6,2.5-1,3.8-1V65c0,0.2,0.2,0.4,0.4,0.4s0.4-0.2,0.4-0.4l0,0v-1.2c1.3,0.1,2.6,0.4,3.8,1l-0.6,1.1c-0.1,0.2,0,0.5,0.2,0.6
	s0.5,0,0.6-0.2l0.6-1.1c1.1,0.7,2.1,1.7,2.8,2.8l-1.1,0.6c-0.2,0.1-0.3,0.4-0.1,0.6c0.1,0.2,0.4,0.3,0.6,0.1l1.1-0.6
	c0.6,1.2,1,2.5,1,3.8h-1.2c-0.2,0-0.4,0.2-0.4,0.4S141.9,73.3,142.2,73.3L142.2,73.3L142.2,73.3z"/>
<rect x="146.6" y="58.6" class="st1" width="24" height="22"/>
<g id="money" transform="translate(0 -28.588)">
	<g id="Group_6397" transform="translate(0 28.588)">
		<g id="Group_6396">
			<path id="Path_10216" class="st5" d="M169.4,70.8l-4.1-10.2c-0.1-0.2-0.3-0.3-0.5-0.2l-16.5,6.6c-0.1,0-0.1,0.1-0.2,0.1
				c-0.1,0.1-0.2,0.2-0.2,0.4v11c0,0.2,0.2,0.4,0.4,0.4c0,0,0,0,0,0H166c0.2,0,0.4-0.2,0.4-0.4l0,0v-6l2.7-1.1
				C169.3,71.3,169.4,71,169.4,70.8z M165.6,78h-16.9V67.8h16.9V78z M154.9,67l7.1-2.8c0.6,0.7,1.5,1,2.4,1l0.7,1.8H154.9z
				 M166.4,71.5v-4.1c0-0.2-0.2-0.4-0.4-0.4l0,0h0l-0.9-2.2c0,0,0,0,0-0.1c0-0.2-0.2-0.3-0.4-0.3c-0.9,0.1-1.7-0.3-2.2-1
				c-0.1-0.2-0.4-0.2-0.5-0.1c0,0,0,0-0.1,0l-8.6,3.4c-0.1,0-0.2,0.1-0.2,0.2h-2.6l14.3-5.7l3.8,9.4L166.4,71.5z"/>
			<path id="Path_10217" class="st5" d="M149.8,75.1c0.8,0.2,1.5,0.9,1.7,1.7c0.1,0.2,0.2,0.3,0.4,0.3c0,0,0,0,0.1,0c0,0,0,0,0.1,0
				h10.1c0,0,0,0,0.1,0c0.2,0.1,0.4-0.1,0.5-0.3c0.2-0.8,0.9-1.5,1.7-1.7c0.2-0.1,0.3-0.3,0.3-0.5c0,0,0,0,0-0.1v-3.4c0,0,0,0,0-0.1
				c0-0.2-0.1-0.4-0.3-0.5c-0.8-0.2-1.5-0.9-1.7-1.7c-0.1-0.2-0.3-0.3-0.5-0.3c0,0,0,0-0.1,0h-10.1c0,0,0,0-0.1,0
				c-0.2,0-0.4,0.1-0.5,0.3c-0.2,0.8-0.9,1.5-1.7,1.7c-0.2,0.1-0.3,0.3-0.3,0.5c0,0,0,0,0,0.1v3.4c0,0,0,0,0,0.1
				C149.5,74.9,149.6,75.1,149.8,75.1L149.8,75.1z M150.4,71.4c0.8-0.3,1.5-1,1.9-1.9h9.8c0.3,0.8,1,1.5,1.9,1.9v3
				c-0.8,0.3-1.5,1-1.9,1.9h-9.8c-0.3-0.8-1-1.5-1.9-1.9L150.4,71.4z"/>
			<path id="Path_10218" class="st5" d="M157.2,75.5c1.4,0,2.5-1.1,2.5-2.5c0-1.4-1.1-2.5-2.5-2.5c-1.4,0-2.5,1.1-2.5,2.5l0,0
				C154.6,74.3,155.8,75.5,157.2,75.5z M157.2,71.2c0.9,0,1.7,0.8,1.7,1.7s-0.8,1.7-1.7,1.7s-1.7-0.8-1.7-1.7c0,0,0,0,0,0
				C155.5,72,156.2,71.2,157.2,71.2C157.2,71.2,157.2,71.2,157.2,71.2L157.2,71.2z"/>
			<path id="Path_10219" class="st5" d="M152.5,73.6c0.4,0,0.6-0.3,0.6-0.6s-0.3-0.6-0.6-0.6c-0.4,0-0.6,0.3-0.6,0.6
				S152.2,73.6,152.5,73.6C152.5,73.6,152.5,73.6,152.5,73.6z M152.5,72.7c0.1,0,0.2,0.1,0.2,0.2s-0.1,0.2-0.2,0.2s-0.2-0.1-0.2-0.2
				l0,0C152.3,72.8,152.4,72.7,152.5,72.7z"/>
			<path id="Path_10220" class="st5" d="M161.8,73.6c0.4,0,0.6-0.3,0.6-0.6s-0.3-0.6-0.6-0.6c-0.4,0-0.6,0.3-0.6,0.6
				S161.5,73.6,161.8,73.6L161.8,73.6z M161.8,72.7c0.1,0,0.2,0.1,0.2,0.2s-0.1,0.2-0.2,0.2s-0.2-0.1-0.2-0.2l0,0
				C161.6,72.8,161.7,72.7,161.8,72.7z"/>
		</g>
	</g>
</g>
</svg>
